<svg xmlns="http://www.w3.org/2000/svg" viewBox="0 0 750 500"><g id="freepik--Forklift--inject-1"><rect x="221.6" y="165.27" width="20.51" height="294.66" style="fill:#263238;stroke:#263238;stroke-linecap:round;stroke-linejoin:round"></rect><path d="M252.06,227.38H239.2a11.48,11.48,0,0,0-11.48,11.48v8.72a5,5,0,0,0,7.35,4.48l22-11.36V228.76Z" style="fill:#424242;stroke:#263238;stroke-linecap:round;stroke-linejoin:round"></path><path d="M252.06,390H239.2a11.48,11.48,0,0,0-11.48,11.48v8.72a5,5,0,0,0,7.35,4.48l22-11.36V391.33Z" style="fill:#424242;stroke:#263238;stroke-linecap:round;stroke-linejoin:round"></path><rect x="213.94" y="157.57" width="9.18" height="65.21" style="fill:#424242;stroke:#263238;stroke-linecap:round;stroke-linejoin:round"></rect><rect x="314.89" y="347.4" width="70.9" height="32.49" style="fill:#263238;stroke:#263238;stroke-linecap:round;stroke-linejoin:round"></rect><path d="M255.79,404l30.59-158.11A40.64,40.64,0,0,1,324.51,213l69.66-3a13.18,13.18,0,0,1,13.7,12.1l12,149.6" style="fill:none;stroke:#263238;stroke-miterlimit:10;stroke-width:11px"></path><polygon points="310.5 407.7 237.3 396.98 237.3 431.95 315.16 412.83 310.5 407.7" style="fill:#263238;stroke:#263238;stroke-miterlimit:10"></polygon><path d="M305.23,328.31,295,322.41,289.67,325,281,318.5l-3.42,5.59,3.42,3.73-3.42,1.56,1.86,4s-7.77,5.28-9.63,19.58l-8.08-.31V381L272,376.31l3.73-.62s19.9-20.51,24.56-30.46S305.23,328.31,305.23,328.31Z" style="fill:#263238;stroke:#263238;stroke-miterlimit:10"></path><path d="M326.48,301.82l-3,1.32-21.56-2s-5.64-3.31-8.95-2a14.93,14.93,0,0,0-5.31,3.65s0,6.3,1.66,6.63,4.64-.66,4.64-.66l1.66-1.66s21.22,5.64,24.21,6.3,11.6-3,11.6-3Z" style="fill:#fff;stroke:#263238;stroke-linecap:round;stroke-linejoin:round"></path><path d="M293,299.16a14.93,14.93,0,0,0-5.31,3.65s0,6.3,1.66,6.63,4.64-.66,4.64-.66l1.66-1.66,6.23,1.65a4.78,4.78,0,0,0,1.27-2.95,25.08,25.08,0,0,0-.79-4.63l-.41,0S296.3,297.84,293,299.16Z" style="fill:#92E3A9;stroke:#263238;stroke-linecap:round;stroke-linejoin:round"></path><path d="M295.81,301.1l-1.95.33s-2.93,3.26-2.93,4.39,1.79,1.79,2.44,1.47a12.83,12.83,0,0,0,2-1.63,4.48,4.48,0,0,0,2.76.82,7.44,7.44,0,0,0,3.26-.82" style="fill:none;stroke:#263238;stroke-miterlimit:10"></path><polygon points="342.4 285.57 324.16 300.16 331.45 310.44 342.4 302.48 342.4 285.57" style="fill:#fff;stroke:#263238;stroke-linecap:round;stroke-linejoin:round"></polygon><polygon points="324.16 300.16 330.46 313.42 334.44 309.44 328.8 296.18 324.16 300.16" style="fill:#fff;stroke:#263238;stroke-linecap:round;stroke-linejoin:round"></polygon><path d="M342.73,275l-4.64,21.22s2,17.57,2,20.89-1.66,10.61-1.66,10.61l-.67,2.32s0,12.6,5.31,13.93,10.61,2.65,17.24,2.65,11.94-3,14.59-7.62,2.66-14.6,2.66-18.24-5.64-32.17-6.64-39.46-10.61-12.94-12.6-13.6S342.73,275,342.73,275Z" style="fill:#fff;stroke:#263238;stroke-linecap:round;stroke-linejoin:round"></path><path d="M334.08,244.29l-1.84,4.07s-4.93,3.61-3.79,4.56a18.62,18.62,0,0,1,1.84,1.72s-1.87,8.13-1.19,8.85a4.93,4.93,0,0,0,5.51.77,3.7,3.7,0,0,1,3.53.63l4.85,9.2,14.92-9-2-7.61,3.7-5.6Z" style="fill:#fff;stroke:#263238;stroke-linecap:round;stroke-linejoin:round"></path><path d="M355.89,257.47l3.7-5.6L339.12,246c-.5.89-1.38,2.68-.63,3.16a8.85,8.85,0,0,1,2,2s-.25,1.91,1.1,1.69,3.42-2.95,5.56-1.36,2.21,3.38.65,4.79a33.64,33.64,0,0,1-2.94,2.37s8.32,6.3,11,5.84l1.56-.27Z" style="fill:#263238;stroke:#263238;stroke-linecap:round;stroke-linejoin:round"></path><path d="M331.81,242.77l-5.46.81s12.75,5,16.43,4.95,18,7.41,18,7.41,6.08-9,1.51-17-12.51-10.1-18.46-8S334.79,235.13,331.81,242.77Z" style="fill:#fff;stroke:#263238;stroke-linecap:round;stroke-linejoin:round"></path><polygon points="357.32 261.69 339.41 272.63 340.08 278.27 359.97 266.67 357.32 261.69" style="fill:#fff;stroke:#263238;stroke-linecap:round;stroke-linejoin:round"></polygon><path d="M284.39,384.7s-10.57,5.91-12.44,6.53-14,3.73-13.67,5.91,1.24,2.79,6.21,4,25.8,3.42,28.6,3.11-.31-17.1-.31-17.1Z" style="fill:#263238;stroke:#263238;stroke-linecap:round;stroke-linejoin:round"></path><path d="M264.49,401.18c5,1.24,25.8,3.42,28.6,3.11,1-.11,1.24-2.33,1.14-5.12-16.74,2.38-29.41-.74-35.55-2.86a1,1,0,0,0-.4.83C258.59,399.31,259.52,399.93,264.49,401.18Z" style="fill:#fff;stroke:#263238;stroke-linecap:round;stroke-linejoin:round"></path><path d="M363.64,335.91S350.28,330,349,329.07s-39.79,2.17-43.21,4.66-29.53,48.18-29.53,48.18l16.79,10.88L319.2,353s9.94-.31,12.43-1.24,17.1-3.42,17.1-3.42,15.85,2.17,20.2.31-.62-9.64-.62-9.64" style="fill:#92E3A9;stroke:#263238;stroke-linecap:round;stroke-linejoin:round"></path><polyline points="318.58 352.07 310.5 342.43 319.51 348.96" style="fill:none;stroke:#263238;stroke-miterlimit:10"></polyline><path d="M326.46,357.06h59.91v-17.6s-2.56-3.12-7.95-1.14-9.37,9.09-9.37,9.09S329.58,340.6,326.46,357.06Z" style="fill:#263238;stroke:#263238;stroke-linecap:round;stroke-linejoin:round"></path><polygon points="385.8 346.27 393.75 346.27 407.38 307.94 401.13 306.24 385.8 346.27" style="fill:#263238;stroke:#263238;stroke-linecap:round;stroke-linejoin:round"></polygon><path d="M401.13,306.24l-11.07,30.1-9.52-3.9a8.07,8.07,0,0,1-4.14-11.14c3.36-6.57,8.73-15.44,14.79-19.32C401.41,295.45,402,301.7,401.13,306.24Z" style="fill:#263238;stroke:#263238;stroke-linecap:round;stroke-linejoin:round"></path><path d="M307.7,371.81l-1.87,39.63-34.23,6a32.56,32.56,0,0,1,11.84,40.19H425.73a6.45,6.45,0,0,0,6.45-6.45V365.45a5.82,5.82,0,0,0-5.33-5.81C407.92,358,343.25,354,307.7,371.81Z" style="fill:#92E3A9;stroke:#263238;stroke-linecap:round;stroke-linejoin:round"></path><circle cx="253.61" cy="444.54" r="27.46" transform="translate(-232.37 284.05) rotate(-42.02)" style="fill:#263238;stroke:#263238;stroke-linecap:round;stroke-linejoin:round"></circle><circle cx="253.61" cy="444.54" r="12.79" transform="translate(-232.66 284.94) rotate(-42.12)" style="fill:#fff;stroke:#263238;stroke-linecap:round;stroke-linejoin:round"></circle><circle cx="416.79" cy="457.45" r="14.55" transform="translate(-201.39 428.7) rotate(-45)" style="fill:#263238;stroke:#263238;stroke-linecap:round;stroke-linejoin:round"></circle><path d="M423.56,457.45a6.78,6.78,0,1,0-6.77,6.78A6.77,6.77,0,0,0,423.56,457.45Z" style="fill:#fff;stroke:#263238;stroke-linecap:round;stroke-linejoin:round"></path><path d="M235.15,419.94a30.76,30.76,0,0,1,47.76,34h2a32.63,32.63,0,0,0-50.83-35.49Z" style="fill:#92E3A9;stroke:#263238;stroke-linecap:round;stroke-linejoin:round"></path><path d="M305.83,411.44s75.2-11.14,80.89-12,22.46-6.89,28.75-40.43" style="fill:none;stroke:#263238;stroke-linecap:round;stroke-linejoin:round"></path><rect x="61.47" y="136.36" width="71.86" height="76.89" style="fill:#92E3A9;stroke:#263238;stroke-linecap:round;stroke-linejoin:round"></rect><rect x="67.12" y="136.36" width="6.53" height="27.97" style="fill:#263238"></rect><rect x="133.27" y="136.36" width="71.86" height="76.89" style="fill:#92E3A9;stroke:#263238;stroke-linecap:round;stroke-linejoin:round"></rect><rect x="138.92" y="136.36" width="6.53" height="27.97" style="fill:#263238"></rect><rect x="61.47" y="58.97" width="71.86" height="76.89" style="fill:#92E3A9;stroke:#263238;stroke-linecap:round;stroke-linejoin:round"></rect><rect x="67.12" y="58.97" width="6.53" height="27.97" style="fill:#263238"></rect><rect x="133.27" y="58.97" width="71.86" height="76.89" style="fill:#92E3A9;stroke:#263238;stroke-linecap:round;stroke-linejoin:round"></rect><rect x="138.92" y="58.97" width="6.53" height="27.97" style="fill:#263238"></rect><rect x="58.71" y="222.79" width="153.85" height="3.67" style="fill:#fff;stroke:#263238;stroke-linecap:round;stroke-linejoin:round"></rect><rect x="58.71" y="209.47" width="153.85" height="3.67" style="fill:#fff;stroke:#263238;stroke-linecap:round;stroke-linejoin:round"></rect><rect x="61.47" y="213.25" width="11.94" height="9.32" style="fill:#fff;stroke:#263238;stroke-linecap:round;stroke-linejoin:round"></rect><rect x="127.7" y="213.25" width="11.94" height="9.32" style="fill:#fff;stroke:#263238;stroke-linecap:round;stroke-linejoin:round"></rect><rect x="193.92" y="213.25" width="11.94" height="9.32" style="fill:#fff;stroke:#263238;stroke-linecap:round;stroke-linejoin:round"></rect><path d="M335.43,311.43s-17.57,6-20.22,7a5.51,5.51,0,0,0-3.32,2.65s-2.32,5.64-.33,6.63,7,.33,7,.33,3,.67,3.65-.66a19.41,19.41,0,0,0,1-4.64s15.26-1,18.57-1.33a12.06,12.06,0,0,0,6-2.65Z" style="fill:#fff;stroke:#263238;stroke-linecap:round;stroke-linejoin:round"></path><path d="M322.17,327.35a18.79,18.79,0,0,0,1-4.62,9.1,9.1,0,0,1-5.21-2.26c-1.2-1.06-1.27-2-1-2.71-.8.28-1.43.5-1.78.64a5.51,5.51,0,0,0-3.32,2.65s-2.32,5.64-.33,6.63,7,.33,7,.33S321.51,328.68,322.17,327.35Z" style="fill:#92E3A9;stroke:#263238;stroke-linecap:round;stroke-linejoin:round"></path><path d="M350,276s-3.64,4.31-4.64,8-3.65,16.91-3.65,16.91l-2.65,5-3.65,5.63a9.38,9.38,0,0,0,6.64,6.63c5.63,1.66,7,2.33,8.29,1s7-11.28,8.29-15.92,6.63-17.57,6.63-17.57" style="fill:#fff;stroke:#263238;stroke-linecap:round;stroke-linejoin:round"></path><path d="M339.08,305.8l-7.63,4.64a21.47,21.47,0,0,0,3.32,6.63c2.32,3,6,4.31,7,4.31h4.65l5.3-3s-7.29-1-9.61-6S339.08,305.8,339.08,305.8Z" style="fill:#fff;stroke:#263238;stroke-linecap:round;stroke-linejoin:round"></path><polygon points="292.47 312.9 296.2 322.85 306.14 327.51 309.56 321.61 292.47 312.9" style="fill:#263238;stroke:#263238;stroke-miterlimit:10"></polygon><path d="M320.18,328.88a1.92,1.92,0,0,1-.87-.21l-33.83-17.91a1.87,1.87,0,0,1,1.75-3.3l33.82,17.91a1.86,1.86,0,0,1-.87,3.51Z" style="fill:#263238"></path></g></svg>
